HIERARCHY
ROOT hip
{
  OFFSET 0 0 0
  CHANNELS 6 Xposition Yposition Zposition Zrotation Yrotation Xrotation
  JOINT abdomen
  {
    OFFSET 0 20.6881 -0.73152
    CHANNELS 3 Zrotation Xrotation Yrotation
    JOINT chest
    {
      OFFSET 0 11.7043 -0.48768
      CHANNELS 3 Zrotation Xrotation Yrotation
      JOINT neck
      {
        OFFSET 0 22.1894 -2.19456
        CHANNELS 3 Zrotation Xrotation Yrotation
        JOINT head
        {
          OFFSET -0.24384 7.07133 1.2192
          CHANNELS 3 Zrotation Xrotation Yrotation
          JOINT leftEye
          {
            OFFSET 4.14528 8.04674 8.04672
            CHANNELS 3 Zrotation Xrotation Yrotation
            End Site
            {
              OFFSET 1 0 0
            }
          }
          JOINT rightEye
          {
            OFFSET -3.6576 8.04674 8.04672
            CHANNELS 3 Zrotation Xrotation Yrotation
            End Site
            {
              OFFSET 1 0 0
            }
          }
        }
      }
      JOINT rCollar
      {
        OFFSET -2.68224 19.2634 -4.8768
        CHANNELS 3 Zrotation Xrotation Yrotation
        JOINT rShldr
        {
          OFFSET -8.77824 -1.95073 1.46304
          CHANNELS 3 Zrotation Xrotation Yrotation
          JOINT rForeArm
          {
            OFFSET -28.1742 -1.7115 0.48768
            CHANNELS 3 Zrotation Xrotation Yrotation
            JOINT rHand
            {
              OFFSET -22.5879 0.773209 7.07136
              CHANNELS 3 Zrotation Xrotation Yrotation
              JOINT rThumb1
              {
                OFFSET -1.2192 -0.487915 3.41376
                CHANNELS 3 Zrotation Xrotation Yrotation
                JOINT rThumb2
                {
                  OFFSET -3.37035 -0.52449 3.41376
                  CHANNELS 3 Zrotation Xrotation Yrotation
                  End Site
                  {
                    OFFSET -1.78271 -1.18214 1.43049
                  }
                }
              }
              JOINT rIndex1
              {
                OFFSET -7.75947 0.938293 5.60832
                CHANNELS 3 Zrotation Xrotation Yrotation
                JOINT rIndex2
                {
                  OFFSET -2.54057 -0.884171 1.56538
                  CHANNELS 3 Zrotation Xrotation Yrotation
                  End Site
                  {
                    OFFSET -1.62519 -0.234802 1.16502
                  }
                }
              }
              JOINT rMid1
              {
                OFFSET -8.24714 1.18213 3.41376
                CHANNELS 3 Zrotation Xrotation Yrotation
                JOINT rMid2
                {
                  OFFSET -3.10165 -0.590103 1.0647
                  CHANNELS 3 Zrotation Xrotation Yrotation
                  End Site
                  {
                    OFFSET -2.48547 -0.328903 0.83742
                  }
                }
              }
              JOINT rRing1
              {
                OFFSET -8.82822 0.546677 1.51678
                CHANNELS 3 Zrotation Xrotation Yrotation
                JOINT rRing2
                {
                  OFFSET -2.60934 -0.819778 -0.0198488
                  CHANNELS 3 Zrotation Xrotation Yrotation
                  End Site
                  {
                    OFFSET -2.33842 -0.294052 0.168128
                  }
                }
              }
              JOINT rPinky1
              {
                OFFSET -8.27202 -0.0477905 -0.4584
                CHANNELS 3 Zrotation Xrotation Yrotation
                JOINT rPinky2
                {
                  OFFSET -1.82734 -0.647385 -0.700984
                  CHANNELS 3 Zrotation Xrotation Yrotation
                  End Site
                  {
                    OFFSET -1.69225 -0.51767 -0.607171
                  }
                }
              }
            }
          }
        }
      }
      JOINT lCollar
      {
        OFFSET 2.68224 19.2634 -4.8768
        CHANNELS 3 Zrotation Xrotation Yrotation
        JOINT lShldr
        {
          OFFSET 8.77824 -1.95073 1.46304
          CHANNELS 3 Zrotation Xrotation Yrotation
          JOINT lForeArm
          {
            OFFSET 28.1742 -1.7115 0.48768
            CHANNELS 3 Zrotation Xrotation Yrotation
            JOINT lHand
            {
              OFFSET 22.5879 0.773209 7.07136
              CHANNELS 3 Zrotation Xrotation Yrotation
              JOINT lThumb1
              {
                OFFSET 1.2192 -0.487915 3.41376
                CHANNELS 3 Zrotation Xrotation Yrotation
                JOINT lThumb2
                {
                  OFFSET 3.37035 -0.52449 3.41376
                  CHANNELS 3 Zrotation Xrotation Yrotation
                  End Site
                  {
                    OFFSET 1.78271 -1.18214 1.43049
                  }
                }
              }
              JOINT lIndex1
              {
                OFFSET 7.75947 0.938293 5.60832
                CHANNELS 3 Zrotation Xrotation Yrotation
                JOINT lIndex2
                {
                  OFFSET 2.54057 -0.884171 1.56538
                  CHANNELS 3 Zrotation Xrotation Yrotation
                  End Site
                  {
                    OFFSET 1.62519 -0.234802 1.16502
                  }
                }
              }
              JOINT lMid1
              {
                OFFSET 8.24714 1.18213 3.41376
                CHANNELS 3 Zrotation Xrotation Yrotation
                JOINT lMid2
                {
                  OFFSET 3.10165 -0.590103 1.0647
                  CHANNELS 3 Zrotation Xrotation Yrotation
                  End Site
                  {
                    OFFSET 2.48547 -0.328903 0.83742
                  }
                }
              }
              JOINT lRing1
              {
                OFFSET 8.82822 0.546677 1.51678
                CHANNELS 3 Zrotation Xrotation Yrotation
                JOINT lRing2
                {
                  OFFSET 2.60934 -0.819778 -0.0198488
                  CHANNELS 3 Zrotation Xrotation Yrotation
                  End Site
                  {
                    OFFSET 2.33842 -0.294052 0.168128
                  }
                }
              }
              JOINT lPinky1
              {
                OFFSET 8.27202 -0.0477905 -0.4584
                CHANNELS 3 Zrotation Xrotation Yrotation
                JOINT lPinky2
                {
                  OFFSET 1.82734 -0.647385 -0.700984
                  CHANNELS 3 Zrotation Xrotation Yrotation
                  End Site
                  {
                    OFFSET 1.69225 -0.51767 -0.607171
                  }
                }
              }
            }
          }
        }
      }
    }
  }
  JOINT rButtock
  {
    OFFSET -8.77824 4.35084 1.2192
    CHANNELS 3 Zrotation Xrotation Yrotation
    JOINT rThigh
    {
      OFFSET 0 -1.70687 -2.19456
      CHANNELS 3 Zrotation Xrotation Yrotation
      JOINT rShin
      {
        OFFSET 0 -36.8199 0.73152
        CHANNELS 3 Zrotation Xrotation Yrotation
        JOINT rFoot
        {
          OFFSET 0.73152 -45.1104 -5.12064
          CHANNELS 3 Zrotation Xrotation Yrotation
          End Site
          {
            OFFSET -1.1221 -3.69964 12.103
          }
        }
      }
    }
  }
  JOINT lButtock
  {
    OFFSET 8.77824 4.35084 1.2192
    CHANNELS 3 Zrotation Xrotation Yrotation
    JOINT lThigh
    {
      OFFSET 0 -1.70687 -2.19456
      CHANNELS 3 Zrotation Xrotation Yrotation
      JOINT lShin
      {
        OFFSET 0 -36.8199 0.73152
        CHANNELS 3 Zrotation Xrotation Yrotation
        JOINT lFoot
        {
          OFFSET -0.73152 -45.1104 -5.12064
          CHANNELS 3 Zrotation Xrotation Yrotation
          End Site
          {
            OFFSET 1.1221 -3.69964 12.103
          }
        }
      }
    }
  }
}
MOTION
Frames:	4
Frame Time:	0.03333
-15.3301 60.893699999999995 15.2671 -48.091247 66.05588 -42.942881 17.190236 8.351347 92.920993 -5.108243 -0.122601 -86.739791 -24.290416 15.892161 -40.912201 36.89653 -1.505434 43.364758 -20.529794 -2.373583 13.051767 -51.40714 2.865637 -5.949295 -171.546813 -49.67811 156.73923 -115.672564 -68.886731 -72.227555 -21.025047 44.857884 -75.047327 143.932952 -41.294126 126.508889 87.06142 -61.319347 40.383424 -148.156634 -13.094102 118.40838 -134.400604 -29.765847 135.202338 -26.552859 74.757388 49.387929 177.496307 -4.276571 149.049598 -173.704691 9.153568 139.734249 -77.515954 69.308455 94.611029 -152.615274 -22.686913 -167.208384 -164.573332 21.426441 -120.728211 -148.245745 9.723035 -86.549721 65.07561 -77.510054 90.462033 78.936631 -35.538342 100.784998 -89.444208 39.820333 109.013994 167.390379 36.00563 -148.028509 173.041042 -5.982982 -84.300156 -13.507366 -44.666886 -12.410583 2.536601 -13.410282 1.594233 149.064457 -14.881009 -121.469264 -26.199405 75.728222 39.654607 -153.030967 18.647422 -123.117591 49.174744 -84.393173 77.315396 -175.20771 -29.574128 -175.333877 127.045995 -15.244234 102.941695 -146.904369 37.242166 64.521635 110.450156 37.597981 42.980178 -121.002202 56.645784 25.851673 34.917606 39.569962 -162.128229 29.505113 -80.331474 116.725066 -82.60302 68.811594 -58.704966 -179.293881 19.338168 -7.374263 -62.943866 65.107756 163.558429 -151.697944 -19.464407 94.753919
-15.1175 60.5547 15.7496 -48.548825 66.439896 -43.010634 17.128016 8.2495 92.607815 -5.289736 0.189856 -86.406829 -23.852234 28.99681 -113.440878 29.025789 38.618208 106.961562 -14.281458 -3.852356 30.05336 -51.171458 1.549221 -3.234878 -175.259658 -65.57936 157.271054 -65.478914 -33.670363 -41.341862 -90.219976 -16.367348 -105.35625 32.268112 -42.390163 18.902757 -91.657969 48.377031 46.568508 91.106441 -52.528425 44.542016 -75.242213 48.853334 84.005539 -6.872867 -6.291834 -45.915469 170.904642 -44.724721 151.991676 -165.696079 30.167334 142.994839 -73.134495 66.039028 90.518993 -137.535089 -47.580618 -158.963952 -171.575556 33.558656 -123.386463 86.878041 41.716345 -74.362336 -1.71572 26.463113 2.479007 112.591554 -13.385137 -143.379454 73.98061 -45.370309 109.86992 -26.154359 -58.109135 -22.427871 81.72706 34.545884 -40.468051 -89.000113 -65.925206 -36.153284 4.18935 -13.985627 1.115981 14.951136 50.628513 -15.634656 7.376501 -22.53218 35.087349 148.279928 -31.337106 -103.637738 -17.189483 -44.608369 -2.677734 -166.32779 43.540638 165.113434 2.697828 7.960565 20.166233 -95.805934 -74.696726 -82.656869 10.678571 9.176597 -15.563609 -11.775674 -9.610442 67.854688 50.131539 24.94086 107.727673 45.689316 6.26574 154.229169 66.593845 12.392164 45.831593 -59.652641 -40.883658 -49.167955 -69.537453 48.576014 -17.235109 9.536641 -13.870381 96.379813
-14.732500000000002 60.4197 16.0804 -49.889806 68.226145 -45.084702 16.005369 8.245286 101.356795 -5.090525 0.717849 -94.902537 -26.091868 24.828744 -77.932148 42.644593 18.440759 71.94955 -4.030822 -1.422775 38.870421 -53.686812 0.799429 -1.579551 41.147424 -86.692425 19.885967 11.280838 23.23578 -51.953565 -146.565071 -72.756603 117.885611 147.548525 -38.585601 130.354134 -92.062761 46.993845 47.834295 -55.189331 0.548062 41.891271 26.402227 3.680389 -5.038401 -56.805165 14.126726 5.17169 -1.049889 -65.205226 -6.037057 -26.210427 65.761054 16.801865 -138.691904 21.835534 165.145305 -137.103824 -45.829438 -175.15914 10.617953 21.920197 -15.87512 -178.973435 -25.029545 -177.672335 151.042256 6.44597 -167.638251 51.303202 -2.225118 -3.301488 -6.579701 3.801164 65.464783 -163.360578 -42.127939 -146.547791 166.507696 1.494214 -86.525487 3.857265 -31.320043 -2.70503 149.446212 3.62288 -110.888085 -6.250554 -4.097993 -4.215473 -2.207065 62.319235 16.2666 39.780688 -16.0028 -22.347055 142.593055 -67.378707 175.035989 16.185226 -20.249156 -4.129067 -13.095281 20.144512 16.799303 82.996281 50.661547 -112.780092 -58.323868 46.872024 -40.855043 65.07984 15.201149 -27.379143 -54.426174 4.022699 -81.669412 71.758017 -23.986766 160.834583 -26.102934 3.043115 -44.252233 93.436763 -12.55936 -165.612453 72.584961 -43.727917 164.017252 7.644591 -2.52879 97.41148
-14.3144 60.3462 16.3344 -49.964034 69.225848 -45.964586 15.308751 8.646366 94.638624 -4.980353 -0.093831 -87.789293 -4.057512 23.161225 85.038304 -36.195134 -7.465836 -89.43275 1.13084 0.412432 40.074121 -54.685711 1.117232 -2.160444 6.81285 -44.741988 -5.483559 76.029017 35.725641 -50.754531 87.086342 -14.727748 67.741586 -175.790931 56.703008 149.890397 -8.843158 0.228465 -7.470811 -158.095145 -60.649232 115.129322 16.225343 20.463537 9.161256 -125.899171 68.683356 56.165694 -102.365305 62.834223 76.129091 -148.862191 9.170198 135.364428 4.097105 -27.991457 -0.815737 -2.996009 33.669196 -1.727164 -102.691213 -26.562949 -99.904511 -39.183587 -57.663104 -88.891123 -2.684423 19.360355 2.198423 -68.034095 1.877539 -27.192435 2.300325 7.695355 -32.245349 16.199016 34.502673 -10.277763 -5.932942 -12.9281 -2.439692 161.706417 -36.502013 -105.641163 12.00395 -0.437883 -8.723306 -20.065205 1.940997 19.184483 77.313833 83.853153 -67.885933 5.177223 -69.905283 -20.178208 122.995582 33.131272 -148.296098 -35.497033 -18.458119 -23.88342 113.978024 -15.057458 106.440505 123.034046 31.575465 122.727393 10.748279 10.692823 -15.884551 -13.789709 -12.873002 132.231452 50.561109 -25.915043 87.992904 54.588982 -16.434107 148.430009 71.790795 17.065831 56.64575 -70.654181 -25.580853 29.600109 64.860774 34.440654 -86.406407 70.370696 6.973529 -15.464945
